<svg version="1.1" xmlns="http://www.w3.org/2000/svg" xmlns:xlink="http://www.w3.org/1999/xlink" x="0px" y="0px" width="56.69px" height="56.69px" viewBox="0 0 56.69 56.69" enable-background="new 0 0 56.69 56.69" xml:space="preserve">
	<path d="M51.492,42.678l-6.906-6.91c-0.838-0.832-1.959-1.291-3.156-1.291c-1.254,0-2.436,0.493-3.332,1.39
		l-2.82,2.82c-0.1,0.014-0.205,0.025-0.297,0.029c-2.127-1.18-5-2.8-8.004-5.805c-3.016-3.016-4.64-5.896-5.826-8.037
		c0.001-0.061,0.007-0.145,0.016-0.234l2.856-2.853c1.813-1.817,1.854-4.729,0.091-6.488l-6.907-6.908
		c-0.833-0.836-1.954-1.296-3.155-1.296c-1.253,0-2.438,0.494-3.357,1.413l-1.954,2.079c-0.714,0.915-1.301,1.951-1.747,3.09
		c-0.407,1.07-0.659,2.089-0.771,3.104C5.265,24.679,8.8,31.827,18.421,41.454c11.377,11.374,21.045,12.258,23.737,12.258
		c0.541,0,0.861-0.033,0.945-0.042c1.061-0.125,2.082-0.381,3.125-0.783c1-0.392,1.963-0.92,2.801-1.538
		c0.143-0.047,0.277-0.126,0.393-0.237l1.984-1.942C53.213,47.352,53.252,44.439,51.492,42.678z M14.05,9.094
		c0.666,0,1.283,0.252,1.74,0.709l6.908,6.91c0.983,0.982,0.941,2.624-0.091,3.66l-0.256,0.256L11.914,10.127l0.214-0.227
		C12.648,9.381,13.331,9.094,14.05,9.094z M45.504,51.022c-0.881,0.34-1.742,0.556-2.627,0.66c-0.059,0.007-0.305,0.029-0.719,0.029
		c-2.498,0-11.488-0.842-22.323-11.672C10.704,30.902,7.334,24.233,8.208,17.01c0.094-0.855,0.308-1.712,0.649-2.613
		c0.373-0.95,0.863-1.817,1.397-2.509l0.287-0.305l10.395,10.459l-1.423,1.421c-0.145,0.145-0.242,0.331-0.277,0.533
		c-0.209,1.183,0.014,1.578,0.094,1.719c1.246,2.25,2.953,5.332,6.232,8.609c3.271,3.271,6.346,4.975,8.583,6.214
		c0.217,0.122,0.469,0.18,0.793,0.18c0.439-0.001,0.971-0.11,1.031-0.123c0.188-0.04,0.361-0.135,0.498-0.271l1.163-1.162
		l10.38,10.444C47.273,50.177,46.41,50.668,45.504,51.022z M49.998,47.749l-0.515,0.504L39.044,37.748l0.468-0.468
		c0.998-0.999,2.711-1.042,3.662-0.097l6.904,6.908C51.061,45.075,51.02,46.721,49.998,47.749z"/>
	<path d="M21.56,8.88c0.314,0,0.623-0.147,0.818-0.424l2.751-3.9c0.318-0.451,0.21-1.075-0.241-1.394
		c-0.45-0.319-1.074-0.21-1.394,0.241l-2.751,3.9c-0.318,0.451-0.21,1.075,0.241,1.394C21.16,8.821,21.361,8.88,21.56,8.88z"/>
	<path d="M31.002,13.422l-4.574,1.363c-0.529,0.158-0.831,0.715-0.673,1.244c0.129,0.434,0.526,0.715,0.958,0.715
		c0.094,0,0.19-0.014,0.285-0.042l4.574-1.363c0.529-0.158,0.832-0.715,0.674-1.244C32.088,13.567,31.533,13.263,31.002,13.422z"/>
	<path d="M25.071,10.945c0.178,0.344,0.527,0.542,0.89,0.542c0.154,0,0.311-0.036,0.457-0.111l5.124-2.642
		c0.49-0.253,0.684-0.856,0.43-1.347c-0.254-0.491-0.855-0.684-1.346-0.43l-5.124,2.642C25.01,9.851,24.818,10.454,25.071,10.945z"/>
</svg>
