<svg version="1.1" xmlns="http://www.w3.org/2000/svg" xmlns:xlink="http://www.w3.org/1999/xlink" x="0px" y="0px" width="56.69px" height="56.69px" viewBox="0 0 56.69 56.69" enable-background="new 0 0 56.69 56.69" xml:space="preserve">
	<path d="M52.745,54.164H3.822v-4.821c0-4.365,4.162-8.209,10.861-10.03c2.458-0.668,5.056-1.891,6.479-3.048v-6.489
		c-2.88-1.954-4.646-5.591-4.646-9.646v-6.647c0-6.102,4.08-11.066,9.095-11.066h5.346c5.016,0,9.096,4.964,9.096,11.066v6.647
		c0,4.055-1.768,7.692-4.646,9.646v6.49c1.422,1.156,4.021,2.379,6.479,3.047c6.699,1.821,10.86,5.665,10.86,10.03V54.164z
		M5.822,52.164h44.923v-2.821c0-3.37-3.685-6.55-9.386-8.101c-1.996-0.543-4.955-1.699-6.955-3.221l-0.998-1v-8.369l0.493-0.289
		c2.523-1.481,4.153-4.713,4.153-8.234v-6.647c0-4.999-3.184-9.066-7.096-9.066h-5.346c-3.912,0-7.095,4.067-7.095,9.066v6.647
		c0,3.521,1.63,6.753,4.153,8.234l0.494,0.289v8.369l-0.999,1c-1.999,1.521-4.958,2.678-6.956,3.221
		c-5.701,1.551-9.385,4.73-9.385,8.101V52.164z"/>
</svg>
