<svg version="1.1" xmlns="http://www.w3.org/2000/svg" xmlns:xlink="http://www.w3.org/1999/xlink" x="0px" y="0px" width="56.69px" height="56.69px" viewBox="0 0 56.69 56.69" enable-background="new 0 0 56.69 56.69" xml:space="preserve">
	<rect x="45.75" y="45.625" width="2" height="2"/>
	<path d="M43.654,47.625h-2.096v-2h2.096V47.625z M39.463,47.625h-2.096v-2h2.096V47.625z M35.271,47.625h-2.096v-2
		h2.096V47.625z M31.08,47.625h-2.095v-2h2.095V47.625z M26.89,47.625h-2.096v-2h2.096V47.625z M22.698,47.625h-2.095v-2h2.095
		V47.625z M18.507,47.625h-2.096v-2h2.096V47.625z M14.316,47.625h-2.095v-2h2.095V47.625z"/>
	<rect x="8.125" y="45.625" width="2" height="2"/>
	<path d="M10.125,43.529h-2v-2.096h2V43.529z M10.125,39.338h-2v-2.096h2V39.338z M10.125,35.146h-2v-2.096h2V35.146z
		M10.125,22.573h-2v-2.095h2V22.573z M10.125,18.382h-2v-2.096h2V18.382z M10.125,14.191h-2v-2.095h2V14.191z"/>
	<rect x="8.125" y="8" width="2" height="2"/>
	<path d="M43.654,10h-2.096V8h2.096V10z M39.463,10h-2.096V8h2.096V10z M35.271,10h-2.095V8h2.095V10z M31.081,10
		h-2.096V8h2.096V10z M26.89,10h-2.095V8h2.095V10z M22.699,10h-2.096V8h2.096V10z M18.507,10h-2.095V8h2.095V10z M14.316,10h-2.096
		V8h2.096V10z"/>
	<rect x="45.75" y="8" width="2" height="2"/>
	<path d="M47.75,43.529h-2v-2.096h2V43.529z M47.75,39.338h-2v-2.096h2V39.338z M47.75,35.146h-2v-2.095h2V35.146z
		M47.75,30.956h-2V28.86h2V30.956z M47.75,26.765h-2v-2.095h2V26.765z M47.75,22.574h-2v-2.096h2V22.574z M47.75,18.382h-2v-2.095h2
		V18.382z M47.75,14.191h-2v-2.096h2V14.191z"/>
	<path d="M48.707,52.982H7.108c-2.586,0-4.69-2.082-4.69-4.642V32.625h2v15.716c0,1.456,1.207,2.642,2.69,2.642
		h41.599c1.484,0,2.69-1.185,2.69-2.642V7.296c0-1.457-1.206-2.642-2.69-2.642H7.108c-1.483,0-2.69,1.185-2.69,2.642V23.25h-2V7.296
		c0-2.56,2.104-4.642,4.69-4.642h41.599c2.586,0,4.69,2.082,4.69,4.642v41.045C53.397,50.9,51.293,52.982,48.707,52.982z"/>
	<polygon points="34.77,21.113 33.355,22.527 37.93,27.102 31,27.102 31,13.063 23.5,13.063 23.5,40.688 
		20.375,40.688 20.375,16.438 13.063,16.438 13.063,26.834 3.418,26.834 3.418,28.834 15.063,28.834 15.063,18.438 18.375,18.438 
		18.375,42.688 25.5,42.688 25.5,15.063 29,15.063 29,29.102 37.617,29.102 33.043,33.676 34.457,35.09 41.602,27.945 "/>
</svg>
