<svg version="1.1" xmlns="http://www.w3.org/2000/svg" xmlns:xlink="http://www.w3.org/1999/xlink" x="0px" y="0px" width="56.69px" height="56.69px" viewBox="0 0 56.69 56.69" enable-background="new 0 0 56.69 56.69" xml:space="preserve">
	<path d="M27.46,53.33H2.54v-2.865c0-2.375,2.178-4.441,5.684-5.393c1.018-0.277,2.118-0.775,2.786-1.25v-2.654
		c-1.413-1.08-2.27-2.93-2.27-4.973v-3.246c0-3.264,2.223-5.917,4.954-5.917h2.611c2.731,0,4.954,2.654,4.954,5.917v3.246
		c0,2.043-0.857,3.895-2.27,4.973v2.654c0.668,0.475,1.77,0.973,2.787,1.25c3.505,0.951,5.683,3.018,5.683,5.393V53.33z M4.54,51.33
		h20.92v-0.865c0-1.389-1.69-2.779-4.207-3.463c-0.976-0.266-2.402-0.82-3.431-1.557l-0.832-1v-4.381l0.494-0.289
		c1.078-0.633,1.775-2.039,1.775-3.58v-3.246c0-2.16-1.325-3.918-2.954-3.918h-2.611c-1.629,0-2.954,1.758-2.954,3.918v3.246
		c0,1.541,0.697,2.947,1.776,3.58l0.493,0.291v4.379l-0.832,1c-1.028,0.736-2.455,1.291-3.43,1.557
		C6.23,47.686,4.54,49.076,4.54,50.465V51.33z"/>
	<path d="M54.259,53.33h-24.92v-2.865c0-2.375,2.178-4.441,5.684-5.393c1.018-0.277,2.118-0.775,2.786-1.25v-2.654
		c-1.413-1.08-2.27-2.93-2.27-4.973v-3.246c0-3.264,2.223-5.917,4.954-5.917h2.611c2.731,0,4.954,2.654,4.954,5.917v3.246
		c0,2.043-0.857,3.895-2.27,4.973v2.654c0.668,0.475,1.77,0.973,2.787,1.25c3.505,0.951,5.683,3.018,5.683,5.393V53.33z
		M31.339,51.33h20.92v-0.865c0-1.389-1.69-2.779-4.207-3.463c-0.976-0.266-2.402-0.82-3.431-1.557l-0.832-1v-4.381l0.494-0.289
		c1.078-0.633,1.775-2.039,1.775-3.58v-3.246c0-2.16-1.325-3.918-2.954-3.918h-2.611c-1.629,0-2.954,1.758-2.954,3.918v3.246
		c0,1.541,0.697,2.947,1.776,3.58l0.493,0.291v4.379l-0.832,1c-1.028,0.736-2.455,1.291-3.43,1.557
		c-2.518,0.684-4.208,2.074-4.208,3.463V51.33z"/>
	<path d="M34.622,5.75c-1.4,0-2.764,0.206-4.072,0.589c-2.076-2.56-5.697-4.136-9.689-4.136
		c-6.308,0-11.438,3.925-11.438,8.75c0,4.825,5.131,8.75,11.438,8.75c1.399,0,2.763-0.205,4.073-0.588
		c2.075,2.559,5.697,4.136,9.688,4.136c6.307,0,11.438-3.926,11.438-8.75C46.06,9.675,40.929,5.75,34.622,5.75z M11.423,10.953
		c0-3.722,4.234-6.75,9.438-6.75c3.587,0,6.923,1.51,8.5,3.848c0.622,0.922,0.938,1.899,0.938,2.902c0,0.958-0.295,1.89-0.834,2.742
		c-0.898,1.42-2.476,2.615-4.502,3.323c-1.301,0.455-2.681,0.685-4.102,0.685C15.657,17.703,11.423,14.675,11.423,10.953z
		M34.622,21.25c-3.063,0-5.942-1.101-7.701-2.878c0.017-0.008,0.032-0.019,0.049-0.027c0.362-0.175,0.707-0.367,1.038-0.57
		c0.057-0.035,0.113-0.069,0.169-0.105c0.323-0.206,0.631-0.424,0.921-0.656c0.046-0.036,0.09-0.074,0.135-0.111
		c0.293-0.242,0.571-0.493,0.826-0.757c0.02-0.02,0.036-0.042,0.056-0.062c0.253-0.267,0.485-0.544,0.697-0.831
		c0.017-0.023,0.034-0.043,0.051-0.065c0.208-0.287,0.39-0.584,0.555-0.888c0.026-0.048,0.054-0.095,0.078-0.143
		c0.153-0.297,0.284-0.601,0.396-0.911c0.02-0.055,0.037-0.11,0.056-0.165c0.104-0.315,0.188-0.633,0.245-0.957
		c0.008-0.044,0.013-0.089,0.02-0.134c0.054-0.342,0.088-0.688,0.088-1.038c0-0.314-0.029-0.623-0.072-0.932
		c-0.011-0.083-0.025-0.167-0.04-0.25c-0.046-0.257-0.105-0.512-0.181-0.764c-0.016-0.053-0.026-0.107-0.044-0.16
		c-0.082-0.253-0.177-0.504-0.289-0.751c0.953-0.229,1.941-0.346,2.949-0.346c5.204,0,9.438,3.028,9.438,6.75
		S39.826,21.25,34.622,21.25z"/>
	<path d="M8.339,27.25c-2.39,0-4.334-1.57-4.334-3.5c0-1.93,1.944-3.5,4.334-3.5c2.39,0,4.334,1.57,4.334,3.5
		C12.673,25.68,10.729,27.25,8.339,27.25z M8.339,22.25c-1.243,0-2.334,0.701-2.334,1.5c0,0.799,1.091,1.5,2.334,1.5
		c1.243,0,2.334-0.701,2.334-1.5C10.673,22.951,9.582,22.25,8.339,22.25z"/>
	<path d="M48.913,27.25c-2.39,0-4.334-1.57-4.334-3.5c0-1.93,1.944-3.5,4.334-3.5c2.39,0,4.334,1.57,4.334,3.5
		C53.247,25.68,51.303,27.25,48.913,27.25z M48.913,22.25c-1.243,0-2.334,0.701-2.334,1.5c0,0.799,1.091,1.5,2.334,1.5
		c1.243,0,2.334-0.701,2.334-1.5C51.247,22.951,50.156,22.25,48.913,22.25z"/>
	<circle cx="6.005" cy="30.666" r="1.916"/>
	<circle cx="50.83" cy="30.666" r="1.916"/>
</svg>
