<svg version="1.1" xmlns="http://www.w3.org/2000/svg" xmlns:xlink="http://www.w3.org/1999/xlink" x="0px" y="0px" width="56.69px" height="56.69px" viewBox="0 0 56.69 56.69" enable-background="new 0 0 56.69 56.69" xml:space="preserve">
	<rect x="16.789" y="45.236" width="2" height="2"/>
	<rect x="12.789" y="45.236" width="2" height="2"/>
	<rect x="20.789" y="45.236" width="2" height="2"/>
	<rect x="8.789" y="45.236" width="2" height="2"/>
	<rect x="36.789" y="45.236" width="2" height="2"/>
	<rect x="44.789" y="45.236" width="2" height="2"/>
	<rect x="24.789" y="45.236" width="2" height="2"/>
	<rect x="48.789" y="45.236" width="2" height="2"/>
	<rect x="40.789" y="45.236" width="2" height="2"/>
	<rect x="32.789" y="45.236" width="2" height="2"/>
	<rect x="28.789" y="45.236" width="2" height="2"/>
	<path d="M54.256,24.874l-7.34-4.295V4.621c0-0.552-0.447-1-1-1H21.292c-0.007,0-0.014,0.004-0.021,0.004
		c-0.076,0.001-0.148,0.026-0.222,0.045c-0.053,0.014-0.109,0.016-0.159,0.038c-0.046,0.02-0.083,0.058-0.126,0.084
		c-0.067,0.043-0.136,0.082-0.191,0.14c-0.005,0.005-0.013,0.007-0.018,0.013l-8.248,8.996c-0.208,0.227-0.279,0.523-0.241,0.806
		c-0.004,0.039-0.023,0.074-0.023,0.114v6.449l-8.194,4.553c-0.317,0.176-0.514,0.511-0.514,0.874V52.07c0,0.553,0.448,1,1,1H53.75
		c0.553,0,1-0.447,1-1V25.737C54.75,25.382,54.563,25.054,54.256,24.874z M20.292,7.191v5.67h-5.199L20.292,7.191z M12.042,22.599
		v5.388c0,0.553,0.448,1,1,1c0.552,0,1-0.447,1-1V14.861h7.25c0.553,0,1-0.448,1-1v-8.24h22.625v22.365c0,0.553,0.447,1,1,1
		c0.553,0,1-0.447,1-1v-5.09l5.834,3.414v2.131L29.201,39.438L5.333,28.292v-1.967L12.042,22.599z M5.333,51.07V30.5L28.66,41.394
		c0.137,0.063,0.28,0.094,0.422,0.094c0.041,0,0.079-0.012,0.119-0.017c0.04,0.005,0.078,0.017,0.119,0.017
		c0.141,0,0.285-0.03,0.422-0.094L52.75,30.648V51.07H5.333z"/>
	<path d="M22.547,29.775c0.545,0.748,1.194,1.383,1.946,1.903c0.751,0.521,1.559,0.907,2.425,1.158
		c0.031,0.012,0.066-0.033,0.108-0.135c0.041-0.101,0.082-0.236,0.124-0.403c0.041-0.168,0.079-0.348,0.115-0.539
		s0.065-0.374,0.085-0.548c0.02-0.174,0.03-0.32,0.03-0.439c0-0.12-0.015-0.187-0.046-0.198c-0.659-0.18-1.265-0.458-1.815-0.835
		c-0.551-0.377-1.026-0.841-1.428-1.392c-0.402-0.551-0.714-1.176-0.936-1.877c-0.221-0.7-0.332-1.457-0.332-2.271
		c0-0.958,0.16-1.855,0.479-2.693c0.319-0.838,0.751-1.566,1.298-2.183c0.545-0.616,1.182-1.104,1.907-1.463
		c0.726-0.359,1.495-0.539,2.309-0.539c0.906,0,1.691,0.174,2.355,0.521c0.664,0.348,1.217,0.829,1.66,1.446
		c0.443,0.616,0.775,1.344,0.996,2.182c0.223,0.838,0.344,1.748,0.363,2.729c0.01,0.815-0.092,1.578-0.309,2.29
		c-0.217,0.712-0.484,1.332-0.803,1.858c-0.32,0.526-0.656,0.942-1.012,1.248c-0.356,0.306-0.662,0.452-0.92,0.44
		c-0.113,0-0.188-0.126-0.225-0.378c-0.035-0.251-0.037-0.583-0.006-0.996c0.029-0.413,0.084-0.892,0.162-1.437
		c0.076-0.545,0.17-1.116,0.277-1.715c0.107-0.599,0.229-1.204,0.363-1.814c0.133-0.61,0.264-1.188,0.392-1.732
		c0.129-0.545,0.254-1.036,0.371-1.473c0.119-0.438,0.225-0.787,0.316-1.051h-2.039c-0.02,0.108-0.043,0.204-0.068,0.287
		c-0.025,0.084-0.055,0.171-0.086,0.261c-0.029,0.09-0.064,0.188-0.1,0.296c-0.037,0.108-0.07,0.24-0.1,0.396l-0.418-1.239h-2.502
		c-0.289,0-0.559,0.126-0.812,0.377c-0.253,0.252-0.425,0.551-0.518,0.898c-0.134,0.479-0.278,1.012-0.433,1.598
		c-0.154,0.587-0.299,1.18-0.432,1.778c-0.135,0.599-0.248,1.176-0.34,1.732c-0.094,0.557-0.14,1.045-0.14,1.464
		c0,0.275,0.052,0.494,0.154,0.655c0.102,0.162,0.237,0.285,0.401,0.368c0.165,0.084,0.354,0.141,0.564,0.171
		c0.211,0.029,0.42,0.045,0.625,0.045c0.392,0.024,0.809,0.029,1.252,0.018c0.442-0.012,0.813-0.023,1.111-0.035
		c0,0.442,0.011,0.895,0.031,1.355c0.021,0.461,0.093,0.883,0.216,1.266c0.123,0.384,0.315,0.697,0.57,0.943
		c0.258,0.245,0.619,0.368,1.082,0.368c0.844,0,1.607-0.267,2.287-0.8c0.68-0.532,1.26-1.209,1.744-2.028
		c0.484-0.82,0.857-1.719,1.121-2.694c0.262-0.976,0.393-1.906,0.393-2.792c0-1.365-0.172-2.61-0.518-3.735
		c-0.344-1.126-0.842-2.09-1.49-2.892c-0.648-0.802-1.439-1.422-2.371-1.858c-0.932-0.438-1.99-0.656-3.173-0.656
		c-1.174,0-2.253,0.243-3.236,0.728c-0.983,0.485-1.83,1.144-2.541,1.976c-0.711,0.832-1.264,1.808-1.66,2.927
		c-0.396,1.12-0.596,2.315-0.596,3.583c0,1.09,0.158,2.104,0.472,3.044C21.571,28.184,22.001,29.027,22.547,29.775z M29.885,22.88
		c-0.072,0.329-0.146,0.661-0.225,0.996c-0.078,0.335-0.152,0.671-0.225,1.006c-0.072,0.335-0.139,0.646-0.201,0.934h-2.007
		c0.124-0.646,0.267-1.302,0.434-1.966c0.164-0.665,0.303-1.29,0.416-1.877h2.007C30.023,22.248,29.955,22.55,29.885,22.88z"/>
</svg>
