<svg version="1.1" xmlns="http://www.w3.org/2000/svg" xmlns:xlink="http://www.w3.org/1999/xlink" x="0px" y="0px"
	 width="56.69px" height="56.69px" viewBox="0 0 56.69 56.69" enable-background="new 0 0 56.69 56.69" xml:space="preserve">
	<path d="M14.633,48.415h-2v-2h2V48.415z M14.633,44.415h-2v-2h2V44.415z M14.633,40.415h-2v-2h2V40.415z
		 M14.633,36.415h-2v-2h2V36.415z M14.633,32.415h-2v-2h2V32.415z M14.633,28.415h-2v-2h2V28.415z M14.633,24.415h-2v-2h2V24.415z
		 M14.633,20.415h-2v-2h2V20.415z"/>
	<path d="M9.883,15.245h-2v-2h2V15.245z M9.883,11.245h-2v-2h2V11.245z M9.883,7.245h-2v-2h2V7.245z"/>
	<path d="M22.035,18.831H6.28c-1.345,0-2.397-0.91-2.397-2.074V4.642c0-1.164,1.053-2.075,2.397-2.075h15.755
		c1.345,0,2.397,0.911,2.397,2.075v12.115C24.433,17.92,23.38,18.831,22.035,18.831z M5.892,16.751c0.036,0,0.173,0.08,0.389,0.08
		h15.755c0.245,0,0.388-0.103,0.412-0.14l-0.015-12.05c-0.005,0.029-0.152-0.075-0.397-0.075H6.28c-0.245,0-0.388,0.103-0.412,0.14
		l0.015,12.05C5.884,16.753,5.887,16.751,5.892,16.751z"/>
	<path d="M39.258,32.245h-2v-2h2V32.245z M39.258,28.245h-2v-2h2V28.245z M39.258,24.245h-2v-2h2V24.245z"/>
	<path d="M30.508,28.37h-2v-2h2V28.37z M26.508,28.37h-2v-2h2V28.37z M22.508,28.37h-2v-2h2V28.37z M18.508,28.37h-2
		v-2h2V28.37z"/>
	<path d="M50.41,35.501H34.655c-1.345,0-2.397-0.91-2.397-2.074V21.312c0-1.163,1.053-2.075,2.397-2.075H50.41
		c1.345,0,2.397,0.912,2.397,2.075v12.115C52.808,34.591,51.755,35.501,50.41,35.501z M34.267,33.421c0.036,0,0.173,0.08,0.389,0.08
		H50.41c0.245,0,0.388-0.102,0.412-0.139l-0.015-12.05c-0.009,0.03-0.152-0.074-0.397-0.075H34.655
		c-0.245,0-0.388,0.104-0.412,0.141l0.015,12.049C34.259,33.423,34.262,33.421,34.267,33.421z"/>
	<path d="M39.258,52.353h-2v-2h2V52.353z M39.258,48.353h-2v-2h2V48.353z M39.258,44.353h-2v-2h2V44.353z"/>
	<path d="M30.508,48.478h-2v-2h2V48.478z M26.508,48.478h-2v-2h2V48.478z M22.508,48.478h-2v-2h2V48.478z
		 M18.508,48.478h-2v-2h2V48.478z"/>
	<path d="M50.41,55.608H34.655c-1.345,0-2.397-0.91-2.397-2.074V41.419c0-1.162,1.053-2.074,2.397-2.074H50.41
		c1.345,0,2.397,0.912,2.397,2.074v12.115C52.808,54.698,51.755,55.608,50.41,55.608z M34.267,53.528c0.036,0,0.173,0.08,0.389,0.08
		H50.41c0.245,0,0.388-0.102,0.412-0.139l-0.015-12.051c-0.009,0.031-0.152-0.074-0.397-0.074H34.655
		c-0.245,0-0.388,0.102-0.412,0.141l0.015,12.049C34.259,53.53,34.262,53.528,34.267,53.528z"/>
</svg>
