<svg version="1.1" xmlns="http://www.w3.org/2000/svg" xmlns:xlink="http://www.w3.org/1999/xlink" x="0px" y="0px" width="56.69px" height="56.69px" viewBox="0 0 56.69 56.69" enable-background="new 0 0 56.69 56.69" xml:space="preserve">
	<path fill="#a6ce39" d="M31.336,34.037l0.436,1.159l0.492-1.136c0.301-0.694,7.381-17.04,8.484-20.312
		c0.381-1.028,0.574-2.088,0.574-3.151c0-4.953-4.029-8.982-8.98-8.982c-4.958,0-8.989,4.029-8.989,8.982
		c0,0.944,0.148,1.878,0.436,2.759C24.387,15.473,31.053,33.279,31.336,34.037z M32.342,5.718c2.709,0,4.912,2.205,4.912,4.915
		c0,2.709-2.203,4.913-4.912,4.913s-4.913-2.204-4.913-4.913C27.429,7.923,29.633,5.718,32.342,5.718z"/>
	<path fill="#a6ce39" d="M32.342,14.023c1.883,0,3.414-1.537,3.414-3.426c0-1.883-1.531-3.415-3.414-3.415
		c-1.887,0-3.42,1.532-3.42,3.415C28.921,12.487,30.455,14.023,32.342,14.023z"/>
	<path fill="#a6ce39" d="M53.385,1.839c-0.32-0.175-0.713-0.16-1.02,0.039L43.49,7.626c-0.465,0.3-0.598,0.919-0.297,1.383
		c0.301,0.464,0.92,0.596,1.383,0.296l7.332-4.749v43.325L40.17,52.14l-0.447-0.174c0.052-0.762,0.094-1.981-0.064-3.008
		c-0.25-1.625-2.625-5.625-3.75-7.875s-2.5-2.875-5.625-2.875c-3.125,0-7-0.125-7.75-3.25s-3.25-4-3.875-4s-2.875,0-4.5-2.526
		c-1.625-2.526-8.875-2.724-8.875-2.724l-0.5-0.347V5.781l9.216,5.814c0.259,0.163,0.58,0.199,0.868,0.097l4.5-1.596
		c0.522-0.185,0.793-0.756,0.608-1.276c-0.185-0.521-0.757-0.794-1.276-0.608l-4.043,1.434L4.316,3.122
		C4.009,2.927,3.618,2.917,3.3,3.092C2.981,3.268,2.783,3.604,2.783,3.968v44.365c0,0.397,0.235,0.757,0.599,0.916l11.125,4.875
		c0.242,0.104,0.514,0.11,0.76,0.018l12.339-4.736l12.19,4.735c0.117,0.045,0.24,0.067,0.363,0.067c0.115,0,0.23-0.02,0.34-0.06
		l12.75-4.625c0.396-0.143,0.66-0.52,0.66-0.94V2.718C53.908,2.352,53.707,2.014,53.385,1.839z"/>
</svg>
