<svg xmlns="http://www.w3.org/2000/svg" viewBox="0 0 20 20"><path fill="#a6ce39" d="M18.931 14.102c-.11-.187-.405-.299-.849-.523-.442-.225-2.618-1.31-3.024-1.459-.405-.15-.7-.225-.995.224-.295.45-1.144 1.46-1.402 1.759-.258.301-.516.338-.959.112-.443-.224-1.869-.697-3.56-2.226-1.316-1.19-2.204-2.659-2.462-3.108-.259-.449-.028-.692.194-.916.199-.2.443-.523.664-.785s.295-.45.442-.749c.147-.299.074-.562-.037-.786-.11-.225-.996-2.432-1.365-3.33-.359-.876-.724-.756-.995-.771a17.535 17.535 0 0 0-.849-.016c-.295 0-.775.112-1.181.562S1.005 3.624 1.005 5.832c0 2.209 1.586 4.341 1.807 4.641.221.299 3.121 4.83 7.562 6.772 1.056.463 1.881.739 2.523.945 1.06.342 2.025.294 2.789.179.85-.129 2.618-1.086 2.987-2.133.368-1.048.368-1.947.258-2.134z"/></svg>