<?xml version="1.0" encoding="UTF-8"?>
<!DOCTYPE svg PUBLIC "-//W3C//DTD SVG 1.1//EN" "http://www.w3.org/Graphics/SVG/1.1/DTD/svg11.dtd">
<svg xmlns="http://www.w3.org/2000/svg">
<symbol id="icon_arrow-navbar" viewBox="0 0 56.69 56.69">
    <path d="M43.646 11.064h-3.665l9.438 16.35H6.271v3.172H49.419l-9.438 16.35h3.665L54 29z"/>
</symbol>
<symbol id="icon_email" viewBox="0 0 56.69 56.69">
    <path d="M16.789 45.236h2v2h-2zM12.789 45.236h2v2h-2zM20.789 45.236h2v2h-2zM8.789 45.236h2v2h-2zM36.789 45.236h2v2h-2zM44.789 45.236h2v2h-2zM24.789 45.236h2v2h-2zM48.789 45.236h2v2h-2zM40.789 45.236h2v2h-2zM32.789 45.236h2v2h-2zM28.789 45.236h2v2h-2z"/>
    <path d="M54.256 24.874l-7.34-4.295V4.621a1 1 0 0 0-1-1H21.292c-.007 0-.014.004-.021.004-.076.001-.148.026-.222.045-.053.014-.109.016-.159.038-.046.02-.083.058-.126.084-.067.043-.136.082-.191.14-.005.005-.013.007-.018.013l-8.248 8.996a.984.984 0 0 0-.241.806c-.004.039-.023.074-.023.114v6.449l-8.194 4.553a1 1 0 0 0-.514.874V52.07a1 1 0 0 0 1 1H53.75a1 1 0 0 0 1-1V25.737a.999.999 0 0 0-.494-.863zM20.292 7.191v5.67h-5.199l5.199-5.67zm-8.25 15.408v5.388a1 1 0 1 0 2 0V14.861h7.25a1 1 0 0 0 1-1v-8.24h22.625v22.365a1 1 0 1 0 2 0v-5.09l5.834 3.414v2.131l-23.55 10.997L5.333 28.292v-1.967l6.709-3.726zM5.333 51.07V30.5L28.66 41.394c.137.063.28.094.422.094.041 0 .079-.012.119-.017.04.005.078.017.119.017.141 0 .285-.03.422-.094L52.75 30.648V51.07H5.333z"/>
    <path d="M22.547 29.775a8.082 8.082 0 0 0 1.946 1.903 8.265 8.265 0 0 0 2.425 1.158c.031.012.066-.033.108-.135.041-.101.082-.236.124-.403a10.443 10.443 0 0 0 .2-1.087c.02-.174.03-.32.03-.439 0-.12-.015-.187-.046-.198a5.968 5.968 0 0 1-1.815-.835 5.841 5.841 0 0 1-1.428-1.392 6.471 6.471 0 0 1-.936-1.877 7.506 7.506 0 0 1-.332-2.271c0-.958.16-1.855.479-2.693a7.015 7.015 0 0 1 1.298-2.183 6.202 6.202 0 0 1 1.907-1.463 5.14 5.14 0 0 1 2.309-.539c.906 0 1.691.174 2.355.521a4.708 4.708 0 0 1 1.66 1.446c.443.616.775 1.344.996 2.182.223.838.344 1.748.363 2.729a7.496 7.496 0 0 1-.309 2.29 8.17 8.17 0 0 1-.803 1.858c-.32.526-.656.942-1.012 1.248-.356.306-.662.452-.92.44-.113 0-.188-.126-.225-.378a4.877 4.877 0 0 1-.006-.996c.029-.413.084-.892.162-1.437a46.916 46.916 0 0 1 .64-3.529c.133-.61.264-1.188.392-1.732a52.03 52.03 0 0 1 .371-1.473 17 17 0 0 1 .316-1.051h-2.039a2.72 2.72 0 0 1-.068.287c-.025.084-.055.171-.086.261-.029.09-.064.188-.1.296-.037.108-.07.24-.1.396l-.418-1.239h-2.502c-.289 0-.559.126-.812.377a1.96 1.96 0 0 0-.518.898c-.134.479-.278 1.012-.433 1.598-.154.587-.299 1.18-.432 1.778a30.615 30.615 0 0 0-.34 1.732 8.929 8.929 0 0 0-.14 1.464c0 .275.052.494.154.655.102.162.237.285.401.368.165.084.354.141.564.171.211.029.42.045.625.045.392.024.809.029 1.252.018.442-.012.813-.023 1.111-.035 0 .442.011.895.031 1.355.021.461.093.883.216 1.266.123.384.315.697.57.943.258.245.619.368 1.082.368.844 0 1.607-.267 2.287-.8.68-.532 1.26-1.209 1.744-2.028.484-.82.857-1.719 1.121-2.694.262-.976.393-1.906.393-2.792 0-1.365-.172-2.61-.518-3.735-.344-1.126-.842-2.09-1.49-2.892a6.616 6.616 0 0 0-2.371-1.858c-.932-.438-1.99-.656-3.173-.656-1.174 0-2.253.243-3.236.728a7.916 7.916 0 0 0-2.541 1.976c-.711.832-1.264 1.808-1.66 2.927a10.674 10.674 0 0 0-.596 3.583c0 1.09.158 2.104.472 3.044.325.94.755 1.783 1.301 2.531zm7.338-6.895c-.072.329-.146.661-.225.996-.078.335-.152.671-.225 1.006l-.201.934h-2.007a35.46 35.46 0 0 1 .434-1.966c.164-.665.303-1.29.416-1.877h2.007c-.061.275-.129.577-.199.907z"/>
</symbol>
<symbol id="icon_offices" viewBox="0 0 56.69 56.69">
    <path d="M45.75 45.625h2v2h-2zM43.654 47.625h-2.096v-2h2.096v2zm-4.191 0h-2.096v-2h2.096v2zm-4.192 0h-2.096v-2h2.096v2zm-4.191 0h-2.095v-2h2.095v2zm-4.19 0h-2.096v-2h2.096v2zm-4.192 0h-2.095v-2h2.095v2zm-4.191 0h-2.096v-2h2.096v2zm-4.191 0h-2.095v-2h2.095v2zM8.125 45.625h2v2h-2zM10.125 43.529h-2v-2.096h2v2.096zm0-4.191h-2v-2.096h2v2.096zm0-4.192h-2V33.05h2v2.096zm0-12.573h-2v-2.095h2v2.095zm0-4.191h-2v-2.096h2v2.096zm0-4.191h-2v-2.095h2v2.095zM8.125 8h2v2h-2zM43.654 10h-2.096V8h2.096v2zm-4.191 0h-2.096V8h2.096v2zm-4.192 0h-2.095V8h2.095v2zm-4.19 0h-2.096V8h2.096v2zm-4.191 0h-2.095V8h2.095v2zm-4.191 0h-2.096V8h2.096v2zm-4.192 0h-2.095V8h2.095v2zm-4.191 0H12.22V8h2.096v2zM45.75 8h2v2h-2zM47.75 43.529h-2v-2.096h2v2.096zm0-4.191h-2v-2.096h2v2.096zm0-4.192h-2v-2.095h2v2.095zm0-4.19h-2V28.86h2v2.096zm0-4.191h-2V24.67h2v2.095zm0-4.191h-2v-2.096h2v2.096zm0-4.192h-2v-2.095h2v2.095zm0-4.191h-2v-2.096h2v2.096z"/>
    <path d="M48.707 52.982H7.108c-2.586 0-4.69-2.082-4.69-4.642V32.625h2v15.716c0 1.456 1.207 2.642 2.69 2.642h41.599c1.484 0 2.69-1.185 2.69-2.642V7.296c0-1.457-1.206-2.642-2.69-2.642H7.108c-1.483 0-2.69 1.185-2.69 2.642V23.25h-2V7.296c0-2.56 2.104-4.642 4.69-4.642h41.599c2.586 0 4.69 2.082 4.69 4.642v41.045c0 2.559-2.104 4.641-4.69 4.641z"/>
    <path d="M34.77 21.113l-1.415 1.414 4.575 4.575H31V13.063h-7.5v27.625h-3.125v-24.25h-7.312v10.396H3.418v2h11.645V18.438h3.312v24.25H25.5V15.063H29v14.039h8.617l-4.574 4.574 1.414 1.414 7.145-7.145z"/>
</symbol>
<symbol id="icon_partners" viewBox="0 0 56.69 56.69">
    <path d="M27.46 53.33H2.54v-2.865c0-2.375 2.178-4.441 5.684-5.393 1.018-.277 2.118-.775 2.786-1.25v-2.654c-1.413-1.08-2.27-2.93-2.27-4.973v-3.246c0-3.264 2.223-5.917 4.954-5.917h2.611c2.731 0 4.954 2.654 4.954 5.917v3.246c0 2.043-.857 3.895-2.27 4.973v2.654c.668.475 1.77.973 2.787 1.25 3.505.951 5.683 3.018 5.683 5.393v2.865zm-22.92-2h20.92v-.865c0-1.389-1.69-2.779-4.207-3.463-.976-.266-2.402-.82-3.431-1.557l-.832-1v-4.381l.494-.289c1.078-.633 1.775-2.039 1.775-3.58v-3.246c0-2.16-1.325-3.918-2.954-3.918h-2.611c-1.629 0-2.954 1.758-2.954 3.918v3.246c0 1.541.697 2.947 1.776 3.58l.493.291v4.379l-.832 1c-1.028.736-2.455 1.291-3.43 1.557-2.517.684-4.207 2.074-4.207 3.463v.865zM54.259 53.33h-24.92v-2.865c0-2.375 2.178-4.441 5.684-5.393 1.018-.277 2.118-.775 2.786-1.25v-2.654c-1.413-1.08-2.27-2.93-2.27-4.973v-3.246c0-3.264 2.223-5.917 4.954-5.917h2.611c2.731 0 4.954 2.654 4.954 5.917v3.246c0 2.043-.857 3.895-2.27 4.973v2.654c.668.475 1.77.973 2.787 1.25 3.505.951 5.683 3.018 5.683 5.393v2.865zm-22.92-2h20.92v-.865c0-1.389-1.69-2.779-4.207-3.463-.976-.266-2.402-.82-3.431-1.557l-.832-1v-4.381l.494-.289c1.078-.633 1.775-2.039 1.775-3.58v-3.246c0-2.16-1.325-3.918-2.954-3.918h-2.611c-1.629 0-2.954 1.758-2.954 3.918v3.246c0 1.541.697 2.947 1.776 3.58l.493.291v4.379l-.832 1c-1.028.736-2.455 1.291-3.43 1.557-2.518.684-4.208 2.074-4.208 3.463v.865zM34.622 5.75c-1.4 0-2.764.206-4.072.589-2.076-2.56-5.697-4.136-9.689-4.136-6.308 0-11.438 3.925-11.438 8.75s5.131 8.75 11.438 8.75c1.399 0 2.763-.205 4.073-.588 2.075 2.559 5.697 4.136 9.688 4.136 6.307 0 11.438-3.926 11.438-8.75 0-4.826-5.131-8.751-11.438-8.751zm-23.199 5.203c0-3.722 4.234-6.75 9.438-6.75 3.587 0 6.923 1.51 8.5 3.848.622.922.938 1.899.938 2.902 0 .958-.295 1.89-.834 2.742-.898 1.42-2.476 2.615-4.502 3.323a12.391 12.391 0 0 1-4.102.685c-5.204 0-9.438-3.028-9.438-6.75zM34.622 21.25c-3.063 0-5.942-1.101-7.701-2.878.017-.008.032-.019.049-.027.362-.175.707-.367 1.038-.57.057-.035.113-.069.169-.105.323-.206.631-.424.921-.656.046-.036.09-.074.135-.111.293-.242.571-.493.826-.757.02-.02.036-.042.056-.062.253-.267.485-.544.697-.831l.051-.065c.208-.287.39-.584.555-.888.026-.048.054-.095.078-.143.153-.297.284-.601.396-.911.02-.055.037-.11.056-.165a6.82 6.82 0 0 0 .245-.957c.008-.044.013-.089.02-.134a6.65 6.65 0 0 0 .088-1.038 6.742 6.742 0 0 0-.112-1.182 6.777 6.777 0 0 0-.181-.764c-.016-.053-.026-.107-.044-.16a7.164 7.164 0 0 0-.289-.751 12.61 12.61 0 0 1 2.949-.346c5.204 0 9.438 3.028 9.438 6.75s-4.236 6.751-9.44 6.751zM8.339 27.25c-2.39 0-4.334-1.57-4.334-3.5s1.944-3.5 4.334-3.5c2.39 0 4.334 1.57 4.334 3.5s-1.944 3.5-4.334 3.5zm0-5c-1.243 0-2.334.701-2.334 1.5s1.091 1.5 2.334 1.5 2.334-.701 2.334-1.5-1.091-1.5-2.334-1.5zM48.913 27.25c-2.39 0-4.334-1.57-4.334-3.5s1.944-3.5 4.334-3.5c2.39 0 4.334 1.57 4.334 3.5s-1.944 3.5-4.334 3.5zm0-5c-1.243 0-2.334.701-2.334 1.5s1.091 1.5 2.334 1.5 2.334-.701 2.334-1.5-1.091-1.5-2.334-1.5z"/>
    <circle cx="6.005" cy="30.666" r="1.916"/>
    <circle cx="50.83" cy="30.666" r="1.916"/>
</symbol>
<symbol id="icon_phone" viewBox="0 0 56.69 56.69">
    <path d="M51.492 42.678l-6.906-6.91a4.448 4.448 0 0 0-3.156-1.291 4.68 4.68 0 0 0-3.332 1.39l-2.82 2.82c-.1.014-.205.025-.297.029-2.127-1.18-5-2.8-8.004-5.805-3.016-3.016-4.64-5.896-5.826-8.037.001-.061.007-.145.016-.234l2.856-2.853c1.813-1.817 1.854-4.729.091-6.488l-6.907-6.908a4.418 4.418 0 0 0-3.155-1.296c-1.253 0-2.438.494-3.357 1.413l-1.954 2.079a12.288 12.288 0 0 0-1.747 3.09 12.529 12.529 0 0 0-.771 3.104C5.265 24.679 8.8 31.827 18.421 41.454c11.377 11.374 21.045 12.258 23.737 12.258.541 0 .861-.033.945-.042a12.719 12.719 0 0 0 3.125-.783c1-.392 1.963-.92 2.801-1.538.143-.047.277-.126.393-.237l1.984-1.942c1.807-1.818 1.846-4.731.086-6.492zM14.05 9.094c.666 0 1.283.252 1.74.709l6.908 6.91c.983.982.941 2.624-.091 3.66l-.256.256-10.437-10.502.214-.227a2.71 2.71 0 0 1 1.922-.806zm31.454 41.928a10.68 10.68 0 0 1-2.627.66 7.002 7.002 0 0 1-.719.029c-2.498 0-11.488-.842-22.323-11.672C10.704 30.902 7.334 24.233 8.208 17.01c.094-.855.308-1.712.649-2.613.373-.95.863-1.817 1.397-2.509l.287-.305 10.395 10.459-1.423 1.421a.994.994 0 0 0-.277.533c-.209 1.183.014 1.578.094 1.719 1.246 2.25 2.953 5.332 6.232 8.609 3.271 3.271 6.346 4.975 8.583 6.214.217.122.469.18.793.18.439-.001.971-.11 1.031-.123.188-.04.361-.135.498-.271l1.163-1.162 10.38 10.444a10.2 10.2 0 0 1-2.506 1.416zm4.494-3.273l-.515.504-10.439-10.505.468-.468c.998-.999 2.711-1.042 3.662-.097l6.904 6.908c.983.984.942 2.63-.08 3.658zM21.56 8.88a.997.997 0 0 0 .818-.424l2.751-3.9a1.001 1.001 0 0 0-1.635-1.153l-2.751 3.9a1.001 1.001 0 0 0 .817 1.577zM31.002 13.422l-4.574 1.363a1 1 0 0 0 .57 1.917l4.574-1.363a1.001 1.001 0 0 0-.57-1.917zM25.071 10.945a1.001 1.001 0 0 0 1.347.431l5.124-2.642a1 1 0 0 0-.916-1.777l-5.124 2.642a.998.998 0 0 0-.431 1.346z"/>
</symbol>
<symbol id="icon_sitemap" viewBox="0 0 56.69 56.69">
    <path d="M14.633 48.415h-2v-2h2v2zm0-4h-2v-2h2v2zm0-4h-2v-2h2v2zm0-4h-2v-2h2v2zm0-4h-2v-2h2v2zm0-4h-2v-2h2v2zm0-4h-2v-2h2v2zm0-4h-2v-2h2v2zM9.883 15.245h-2v-2h2v2zm0-4h-2v-2h2v2zm0-4h-2v-2h2v2z"/>
    <path d="M22.035 18.831H6.28c-1.345 0-2.397-.91-2.397-2.074V4.642c0-1.164 1.053-2.075 2.397-2.075h15.755c1.345 0 2.397.911 2.397 2.075v12.115c.001 1.163-1.052 2.074-2.397 2.074zm-16.143-2.08c.036 0 .173.08.389.08h15.755c.245 0 .388-.103.412-.14l-.015-12.05c-.005.029-.152-.075-.397-.075H6.28c-.245 0-.388.103-.412.14l.015 12.05c.001-.003.004-.005.009-.005zM39.258 32.245h-2v-2h2v2zm0-4h-2v-2h2v2zm0-4h-2v-2h2v2zM30.508 28.37h-2v-2h2v2zm-4 0h-2v-2h2v2zm-4 0h-2v-2h2v2zm-4 0h-2v-2h2v2z"/>
    <path d="M50.41 35.501H34.655c-1.345 0-2.397-.91-2.397-2.074V21.312c0-1.163 1.053-2.075 2.397-2.075H50.41c1.345 0 2.397.912 2.397 2.075v12.115c.001 1.164-1.052 2.074-2.397 2.074zm-16.143-2.08c.036 0 .173.08.389.08H50.41c.245 0 .388-.102.412-.139l-.015-12.05c-.009.03-.152-.074-.397-.075H34.655c-.245 0-.388.104-.412.141l.015 12.049c.001-.004.004-.006.009-.006zM39.258 52.353h-2v-2h2v2zm0-4h-2v-2h2v2zm0-4h-2v-2h2v2zM30.508 48.478h-2v-2h2v2zm-4 0h-2v-2h2v2zm-4 0h-2v-2h2v2zm-4 0h-2v-2h2v2z"/>
    <path d="M50.41 55.608H34.655c-1.345 0-2.397-.91-2.397-2.074V41.419c0-1.162 1.053-2.074 2.397-2.074H50.41c1.345 0 2.397.912 2.397 2.074v12.115c.001 1.164-1.052 2.074-2.397 2.074zm-16.143-2.08c.036 0 .173.08.389.08H50.41c.245 0 .388-.102.412-.139l-.015-12.051c-.009.031-.152-.074-.397-.074H34.655c-.245 0-.388.102-.412.141l.015 12.049c.001-.004.004-.006.009-.006z"/>
</symbol>
<symbol id="icon_user" viewBox="0 0 56.69 56.69">
    <path d="M52.745 54.164H3.822v-4.821c0-4.365 4.162-8.209 10.861-10.03 2.458-.668 5.056-1.891 6.479-3.048v-6.489c-2.88-1.954-4.646-5.591-4.646-9.646v-6.647c0-6.102 4.08-11.066 9.095-11.066h5.346c5.016 0 9.096 4.964 9.096 11.066v6.647c0 4.055-1.768 7.692-4.646 9.646v6.49c1.422 1.156 4.021 2.379 6.479 3.047 6.699 1.821 10.86 5.665 10.86 10.03v4.821zm-46.923-2h44.923v-2.821c0-3.37-3.685-6.55-9.386-8.101-1.996-.543-4.955-1.699-6.955-3.221l-.998-1v-8.369l.493-.289c2.523-1.481 4.153-4.713 4.153-8.234v-6.647c0-4.999-3.184-9.066-7.096-9.066H25.61c-3.912 0-7.095 4.067-7.095 9.066v6.647c0 3.521 1.63 6.753 4.153 8.234l.494.289v8.369l-.999 1c-1.999 1.521-4.958 2.678-6.956 3.221-5.701 1.551-9.385 4.73-9.385 8.101v2.821z"/>
</symbol>
</svg>